<mxfile modified="2019-12-26T23:26:23.315Z" host="www.draw.io" agent="Mozilla/5.0 (Macintosh; Intel Mac OS X 10_14_6) AppleWebKit/605.1.15 (KHTML, like Gecko) Version/13.0.4 Safari/605.1.15" etag="7c-p9baPXjWfFkTbEv9V" version="12.4.3" type="github" pages="2">
  <diagram id="W3H_bTco_ZeDZuq-P41X" name="Page-1">
    <mxGraphModel dx="1426" dy="842" grid="1" gridSize="10" guides="1" tooltips="1" connect="1" arrows="1" fold="1" page="1" pageScale="1" pageWidth="850" pageHeight="1100" math="0" shadow="0">
      <root>
        <mxCell id="0"/>
        <mxCell id="1" parent="0"/>
        <mxCell id="AR84fwKk2nrqXr-311DI-14" value="00" style="rounded=1;arcSize=10;dashed=0;strokeColor=#000000;fillColor=none;gradientColor=none;strokeWidth=2;html=0;" parent="1" vertex="1">
          <mxGeometry x="173" y="639.5" width="240" height="200" as="geometry"/>
        </mxCell>
        <mxCell id="AR84fwKk2nrqXr-311DI-17" value="" style="rounded=1;arcSize=10;dashed=0;strokeColor=#000000;fillColor=none;gradientColor=none;strokeWidth=2;html=0;" parent="1" vertex="1">
          <mxGeometry x="443" y="635" width="270" height="200" as="geometry"/>
        </mxCell>
        <mxCell id="i9ezMHfbpzy3i01XhJTI-3" value="" style="rounded=1;arcSize=10;dashed=1;strokeColor=#000000;fillColor=none;gradientColor=none;dashPattern=1 1;strokeWidth=2;" parent="1" vertex="1">
          <mxGeometry x="43" y="170.5" width="760" height="750" as="geometry"/>
        </mxCell>
        <mxCell id="i9ezMHfbpzy3i01XhJTI-2" value="VPC" style="points=[[0,0],[0.25,0],[0.5,0],[0.75,0],[1,0],[1,0.25],[1,0.5],[1,0.75],[1,1],[0.75,1],[0.5,1],[0.25,1],[0,1],[0,0.75],[0,0.5],[0,0.25]];outlineConnect=0;gradientColor=none;html=1;whiteSpace=wrap;fontSize=12;fontStyle=0;shape=mxgraph.aws4.group;grIcon=mxgraph.aws4.group_vpc;strokeColor=#248814;fillColor=none;verticalAlign=top;align=left;spacingLeft=30;fontColor=#AAB7B8;dashed=0;" parent="1" vertex="1">
          <mxGeometry x="93" y="200.5" width="650" height="660" as="geometry"/>
        </mxCell>
        <mxCell id="i9ezMHfbpzy3i01XhJTI-8" value="" style="outlineConnect=0;dashed=0;verticalLabelPosition=bottom;verticalAlign=top;align=center;html=1;shape=mxgraph.aws3.virtual_private_cloud;fillColor=#F58534;gradientColor=none;" parent="1" vertex="1">
          <mxGeometry x="703" y="190" width="67" height="50.5" as="geometry"/>
        </mxCell>
        <mxCell id="i9ezMHfbpzy3i01XhJTI-16" value="" style="outlineConnect=0;dashed=0;verticalLabelPosition=bottom;verticalAlign=top;align=center;html=1;shape=mxgraph.aws3.rds;fillColor=#2E73B8;gradientColor=none;" parent="1" vertex="1">
          <mxGeometry x="473" y="690" width="67" height="76" as="geometry"/>
        </mxCell>
        <mxCell id="i9ezMHfbpzy3i01XhJTI-20" value="" style="outlineConnect=0;dashed=0;verticalLabelPosition=bottom;verticalAlign=top;align=center;html=1;shape=mxgraph.aws3.s3;fillColor=#E05243;gradientColor=none;direction=south;" parent="1" vertex="1">
          <mxGeometry x="379" y="954.5" width="74" height="79" as="geometry"/>
        </mxCell>
        <mxCell id="AR84fwKk2nrqXr-311DI-4" value="" style="rounded=1;arcSize=10;dashed=0;strokeColor=#000000;fillColor=none;gradientColor=none;strokeWidth=2;html=0;" parent="1" vertex="1">
          <mxGeometry x="178" y="240.5" width="485" height="339.5" as="geometry"/>
        </mxCell>
        <mxCell id="AR84fwKk2nrqXr-311DI-5" value="" style="dashed=0;html=1;shape=mxgraph.aws3.permissions;fillColor=#D9A741;gradientColor=none;dashed=0;" parent="1" vertex="1">
          <mxGeometry x="198" y="223.5" width="30" height="35" as="geometry"/>
        </mxCell>
        <mxCell id="AR84fwKk2nrqXr-311DI-6" value="Public Subnet" style="text;html=1;resizable=0;autosize=1;align=center;verticalAlign=middle;points=[];fillColor=none;strokeColor=none;rounded=0;fontStyle=1" parent="1" vertex="1">
          <mxGeometry x="212" y="550" width="90" height="20" as="geometry"/>
        </mxCell>
        <mxCell id="AR84fwKk2nrqXr-311DI-9" value="" style="outlineConnect=0;dashed=0;verticalLabelPosition=bottom;verticalAlign=top;align=center;html=1;shape=mxgraph.aws3.instance;fillColor=#F58534;gradientColor=none;" parent="1" vertex="1">
          <mxGeometry x="495" y="495.5" width="55" height="54.5" as="geometry"/>
        </mxCell>
        <mxCell id="AR84fwKk2nrqXr-311DI-10" value="&lt;b&gt;SSH Bastion&lt;/b&gt;" style="text;html=1;resizable=0;autosize=1;align=center;verticalAlign=middle;points=[];fillColor=none;strokeColor=none;rounded=0;" parent="1" vertex="1">
          <mxGeometry x="555" y="512.75" width="90" height="20" as="geometry"/>
        </mxCell>
        <mxCell id="AR84fwKk2nrqXr-311DI-12" value="&lt;b&gt;ENDPOINT&lt;/b&gt;" style="text;html=1;resizable=0;autosize=1;align=center;verticalAlign=middle;points=[];fillColor=none;strokeColor=none;rounded=0;" parent="1" vertex="1">
          <mxGeometry x="298.5" y="815" width="80" height="20" as="geometry"/>
        </mxCell>
        <mxCell id="AR84fwKk2nrqXr-311DI-15" value="" style="dashed=0;html=1;shape=mxgraph.aws3.permissions;fillColor=#D9A741;gradientColor=none;dashed=0;" parent="1" vertex="1">
          <mxGeometry x="193" y="619.5" width="30" height="35" as="geometry"/>
        </mxCell>
        <mxCell id="AR84fwKk2nrqXr-311DI-16" value="&lt;b&gt;Sagemaker Subnet - Private&lt;/b&gt;" style="text;html=1;resizable=0;autosize=1;align=center;verticalAlign=middle;points=[];fillColor=none;strokeColor=none;rounded=0;" parent="1" vertex="1">
          <mxGeometry x="219.5" y="637.5" width="170" height="20" as="geometry"/>
        </mxCell>
        <mxCell id="AR84fwKk2nrqXr-311DI-18" value="" style="dashed=0;html=1;shape=mxgraph.aws3.permissions;fillColor=#D9A741;gradientColor=none;dashed=0;" parent="1" vertex="1">
          <mxGeometry x="463" y="608.5" width="30" height="35" as="geometry"/>
        </mxCell>
        <mxCell id="AR84fwKk2nrqXr-311DI-20" value="" style="outlineConnect=0;dashed=0;verticalLabelPosition=bottom;verticalAlign=top;align=center;html=1;shape=mxgraph.aws3.vpc_nat_gateway;fillColor=#F58534;gradientColor=none;" parent="1" vertex="1">
          <mxGeometry x="261.5" y="490" width="58.5" height="54.5" as="geometry"/>
        </mxCell>
        <mxCell id="AR84fwKk2nrqXr-311DI-21" value="&lt;b&gt;NAT Gateway&lt;/b&gt;" style="text;html=1;resizable=0;autosize=1;align=center;verticalAlign=middle;points=[];fillColor=none;strokeColor=none;rounded=0;" parent="1" vertex="1">
          <mxGeometry x="333" y="512.75" width="90" height="20" as="geometry"/>
        </mxCell>
        <mxCell id="AR84fwKk2nrqXr-311DI-22" value="" style="outlineConnect=0;dashed=0;verticalLabelPosition=bottom;verticalAlign=top;align=center;html=1;shape=mxgraph.aws3.ec2;fillColor=#F58534;gradientColor=none;" parent="1" vertex="1">
          <mxGeometry x="254" y="403.5" width="55" height="73.5" as="geometry"/>
        </mxCell>
        <mxCell id="AR84fwKk2nrqXr-311DI-11" value="" style="outlineConnect=0;dashed=0;verticalLabelPosition=bottom;verticalAlign=top;align=center;html=1;shape=mxgraph.aws3.endpoints;fillColor=#F58534;gradientColor=none;" parent="1" vertex="1">
          <mxGeometry x="383.5" y="799" width="69" height="72" as="geometry"/>
        </mxCell>
        <mxCell id="AR84fwKk2nrqXr-311DI-23" value="&lt;b&gt;S3 for Log output&lt;/b&gt;" style="text;html=1;resizable=0;autosize=1;align=center;verticalAlign=middle;points=[];fillColor=none;strokeColor=none;rounded=0;" parent="1" vertex="1">
          <mxGeometry x="265.75" y="984" width="120" height="20" as="geometry"/>
        </mxCell>
        <mxCell id="AR84fwKk2nrqXr-311DI-25" value="&lt;b&gt;Database Subnet - Private&lt;/b&gt;" style="text;html=1;resizable=0;autosize=1;align=center;verticalAlign=middle;points=[];fillColor=none;strokeColor=none;rounded=0;" parent="1" vertex="1">
          <mxGeometry x="515" y="634" width="160" height="20" as="geometry"/>
        </mxCell>
        <mxCell id="AR84fwKk2nrqXr-311DI-27" value="" style="outlineConnect=0;dashed=0;verticalLabelPosition=bottom;verticalAlign=top;align=center;html=1;shape=mxgraph.aws3.auto_scaling;fillColor=#F58534;gradientColor=none;direction=south;" parent="1" vertex="1">
          <mxGeometry x="385" y="418" width="58" height="59" as="geometry"/>
        </mxCell>
        <mxCell id="AR84fwKk2nrqXr-311DI-28" value="" style="outlineConnect=0;dashed=0;verticalLabelPosition=bottom;verticalAlign=top;align=center;html=1;shape=mxgraph.aws3.ec2;fillColor=#F58534;gradientColor=none;" parent="1" vertex="1">
          <mxGeometry x="495.5" y="413.5" width="49.5" height="63.5" as="geometry"/>
        </mxCell>
        <mxCell id="AR84fwKk2nrqXr-311DI-29" value="&lt;b&gt;ASG&lt;/b&gt;" style="text;html=1;resizable=0;autosize=1;align=center;verticalAlign=middle;points=[];fillColor=none;strokeColor=none;rounded=0;" parent="1" vertex="1">
          <mxGeometry x="392.5" y="480" width="40" height="20" as="geometry"/>
        </mxCell>
        <mxCell id="AR84fwKk2nrqXr-311DI-32" value="&lt;b&gt;RDS MySQL&lt;/b&gt;" style="text;html=1;resizable=0;autosize=1;align=center;verticalAlign=middle;points=[];fillColor=none;strokeColor=none;rounded=0;" parent="1" vertex="1">
          <mxGeometry x="472" y="779" width="90" height="20" as="geometry"/>
        </mxCell>
        <mxCell id="AR84fwKk2nrqXr-311DI-33" value="" style="outlineConnect=0;dashed=0;verticalLabelPosition=bottom;verticalAlign=top;align=center;html=1;shape=mxgraph.aws3.auto_scaling;fillColor=#F58534;gradientColor=none;" parent="1" vertex="1">
          <mxGeometry x="570.5" y="690" width="59.5" height="53" as="geometry"/>
        </mxCell>
        <mxCell id="AR84fwKk2nrqXr-311DI-34" value="&lt;b&gt;ASG&lt;/b&gt;" style="text;html=1;resizable=0;autosize=1;align=center;verticalAlign=middle;points=[];fillColor=none;strokeColor=none;rounded=0;" parent="1" vertex="1">
          <mxGeometry x="581.5" y="746" width="40" height="20" as="geometry"/>
        </mxCell>
        <mxCell id="AR84fwKk2nrqXr-311DI-35" value="" style="outlineConnect=0;dashed=0;verticalLabelPosition=bottom;verticalAlign=top;align=center;html=1;shape=mxgraph.aws3.application_load_balancer;fillColor=#F58534;gradientColor=none;" parent="1" vertex="1">
          <mxGeometry x="385" y="350" width="51.5" height="53.5" as="geometry"/>
        </mxCell>
        <mxCell id="AR84fwKk2nrqXr-311DI-36" value="&lt;b&gt;Application Load &lt;br&gt;Balancer&lt;/b&gt;" style="text;html=1;resizable=0;autosize=1;align=center;verticalAlign=middle;points=[];fillColor=none;strokeColor=none;rounded=0;" parent="1" vertex="1">
          <mxGeometry x="461.5" y="365.75" width="120" height="30" as="geometry"/>
        </mxCell>
        <mxCell id="AR84fwKk2nrqXr-311DI-37" value="" style="outlineConnect=0;dashed=0;verticalLabelPosition=bottom;verticalAlign=top;align=center;html=1;shape=mxgraph.aws3.internet_gateway;fillColor=#F58534;gradientColor=none;" parent="1" vertex="1">
          <mxGeometry x="378.5" y="200" width="61.5" height="59.5" as="geometry"/>
        </mxCell>
        <mxCell id="AR84fwKk2nrqXr-311DI-38" value="&lt;b&gt;Internet Gateway&lt;/b&gt;" style="text;html=1;resizable=0;autosize=1;align=center;verticalAlign=middle;points=[];fillColor=none;strokeColor=none;rounded=0;" parent="1" vertex="1">
          <mxGeometry x="453.94117647058823" y="203.5" width="110" height="20" as="geometry"/>
        </mxCell>
        <mxCell id="AR84fwKk2nrqXr-311DI-44" value="" style="endArrow=classic;startArrow=classic;html=1;" parent="1" edge="1">
          <mxGeometry width="50" height="50" relative="1" as="geometry">
            <mxPoint x="385" y="725" as="sourcePoint"/>
            <mxPoint x="455" y="725" as="targetPoint"/>
          </mxGeometry>
        </mxCell>
        <mxCell id="AR84fwKk2nrqXr-311DI-45" value="" style="endArrow=classic;startArrow=classic;html=1;" parent="1" edge="1">
          <mxGeometry width="50" height="50" relative="1" as="geometry">
            <mxPoint x="413" y="949" as="sourcePoint"/>
            <mxPoint x="413" y="879" as="targetPoint"/>
          </mxGeometry>
        </mxCell>
        <mxCell id="AR84fwKk2nrqXr-311DI-52" value="" style="endArrow=classic;startArrow=classic;html=1;" parent="1" edge="1">
          <mxGeometry width="50" height="50" relative="1" as="geometry">
            <mxPoint x="292" y="635" as="sourcePoint"/>
            <mxPoint x="292" y="586" as="targetPoint"/>
          </mxGeometry>
        </mxCell>
        <mxCell id="AR84fwKk2nrqXr-311DI-53" value="" style="endArrow=classic;startArrow=classic;html=1;" parent="1" edge="1">
          <mxGeometry width="50" height="50" relative="1" as="geometry">
            <mxPoint x="555" y="633" as="sourcePoint"/>
            <mxPoint x="555" y="584" as="targetPoint"/>
          </mxGeometry>
        </mxCell>
        <mxCell id="AR84fwKk2nrqXr-311DI-54" value="&lt;b&gt;EC2&lt;/b&gt;" style="text;html=1;resizable=0;autosize=1;align=center;verticalAlign=middle;points=[];fillColor=none;strokeColor=none;rounded=0;" parent="1" vertex="1">
          <mxGeometry x="207.76470588235293" y="426" width="40" height="20" as="geometry"/>
        </mxCell>
        <mxCell id="AR84fwKk2nrqXr-311DI-55" value="&lt;b&gt;EC2&lt;/b&gt;" style="text;html=1;resizable=0;autosize=1;align=center;verticalAlign=middle;points=[];fillColor=none;strokeColor=none;rounded=0;" parent="1" vertex="1">
          <mxGeometry x="574.0047058823529" y="437.5" width="40" height="20" as="geometry"/>
        </mxCell>
        <mxCell id="AR84fwKk2nrqXr-311DI-56" value="" style="shadow=0;dashed=0;html=1;strokeColor=none;labelPosition=center;verticalLabelPosition=bottom;verticalAlign=top;align=center;shape=mxgraph.mscae.enterprise.internet_hollow;fillColor=#7D7D7D;" parent="1" vertex="1">
          <mxGeometry x="387.5" y="99" width="50" height="31" as="geometry"/>
        </mxCell>
        <mxCell id="AR84fwKk2nrqXr-311DI-59" value="&lt;b&gt;Bitbucket &lt;br&gt;Source Code&lt;/b&gt;" style="text;html=1;resizable=0;autosize=1;align=center;verticalAlign=middle;points=[];fillColor=none;strokeColor=none;rounded=0;" parent="1" vertex="1">
          <mxGeometry x="164" y="111.5" width="90" height="30" as="geometry"/>
        </mxCell>
        <mxCell id="AR84fwKk2nrqXr-311DI-60" value="" style="endArrow=classic;html=1;" parent="1" edge="1">
          <mxGeometry width="50" height="50" relative="1" as="geometry">
            <mxPoint x="327.5" y="120" as="sourcePoint"/>
            <mxPoint x="377.5" y="120" as="targetPoint"/>
          </mxGeometry>
        </mxCell>
        <mxCell id="AR84fwKk2nrqXr-311DI-65" value="" style="endArrow=classic;startArrow=classic;html=1;" parent="1" edge="1">
          <mxGeometry width="50" height="50" relative="1" as="geometry">
            <mxPoint x="412" y="186.5" as="sourcePoint"/>
            <mxPoint x="412" y="136.5" as="targetPoint"/>
          </mxGeometry>
        </mxCell>
        <mxCell id="AR84fwKk2nrqXr-311DI-66" value="" style="endArrow=classic;startArrow=classic;html=1;" parent="1" edge="1">
          <mxGeometry width="50" height="50" relative="1" as="geometry">
            <mxPoint x="320" y="420" as="sourcePoint"/>
            <mxPoint x="370" y="390" as="targetPoint"/>
          </mxGeometry>
        </mxCell>
        <mxCell id="AR84fwKk2nrqXr-311DI-69" value="" style="endArrow=classic;startArrow=classic;html=1;" parent="1" edge="1" target="AR84fwKk2nrqXr-311DI-35">
          <mxGeometry width="50" height="50" relative="1" as="geometry">
            <mxPoint x="490" y="418" as="sourcePoint"/>
            <mxPoint x="460" y="370" as="targetPoint"/>
          </mxGeometry>
        </mxCell>
        <mxCell id="JZh1Jyp4K40JoV-eKf8e-1" value="" style="outlineConnect=0;fontColor=#232F3E;gradientColor=#4AB29A;gradientDirection=north;fillColor=#116D5B;strokeColor=#ffffff;dashed=0;verticalLabelPosition=bottom;verticalAlign=top;align=center;html=1;fontSize=12;fontStyle=0;aspect=fixed;shape=mxgraph.aws4.resourceIcon;resIcon=mxgraph.aws4.sagemaker;" vertex="1" parent="1">
          <mxGeometry x="255" y="700" width="66" height="66" as="geometry"/>
        </mxCell>
        <mxCell id="JZh1Jyp4K40JoV-eKf8e-2" value="" style="shape=image;html=1;verticalAlign=top;verticalLabelPosition=bottom;labelBackgroundColor=#ffffff;imageAspect=0;aspect=fixed;image=https://cdn2.iconfinder.com/data/icons/font-awesome/1792/bitbucket-128.png" vertex="1" parent="1">
          <mxGeometry x="250.5" y="71.25" width="86.5" height="86.5" as="geometry"/>
        </mxCell>
        <mxCell id="JZh1Jyp4K40JoV-eKf8e-5" value="" style="outlineConnect=0;dashed=0;verticalLabelPosition=bottom;verticalAlign=top;align=center;html=1;shape=mxgraph.aws3.codepipeline;fillColor=#759C3E;gradientColor=none;" vertex="1" parent="1">
          <mxGeometry x="383" y="276.5" width="51" height="61" as="geometry"/>
        </mxCell>
      </root>
    </mxGraphModel>
  </diagram>
  <diagram id="Wp1RTlvrWS9OuLiCsyfZ" name="Page-2">
    <mxGraphModel dx="1398" dy="844" grid="1" gridSize="10" guides="1" tooltips="1" connect="1" arrows="1" fold="1" page="1" pageScale="1" pageWidth="850" pageHeight="1100" math="0" shadow="0">
      <root>
        <mxCell id="KAMundNs8p4o4IvOSZWw-0"/>
        <mxCell id="KAMundNs8p4o4IvOSZWw-1" parent="KAMundNs8p4o4IvOSZWw-0"/>
      </root>
    </mxGraphModel>
  </diagram>
</mxfile>
